<svg width="62" height="13" viewBox="0 0 62 13" fill="none" xmlns="http://www.w3.org/2000/svg">
<path d="M2.44406 2.9353C2.26783 3.09449 2.12856 3.29039 2.03605 3.50922C1.94354 3.72806 1.90003 3.96452 1.90857 4.20199C1.90539 4.44626 1.95111 4.68869 2.04305 4.91498C2.13499 5.14127 2.27128 5.34682 2.44388 5.51951C2.61648 5.69219 2.82188 5.82851 3.04797 5.92041C3.27406 6.01231 3.51625 6.05793 3.76024 6.05458H8.38763C8.7587 6.05213 9.12636 6.12558 9.46807 6.27044C10.1343 6.55472 10.665 7.08596 10.9489 7.75299C11.0936 8.09508 11.167 8.46317 11.1646 8.83466C11.1655 9.5869 10.874 10.31 10.3519 10.8509C10.0977 11.1123 9.79827 11.3253 9.46807 11.4795C9.12997 11.6379 8.7609 11.7189 8.38763 11.7167H0.883815V10.6872H8.39119C8.62107 10.6879 8.84856 10.6406 9.05923 10.5485C9.2699 10.4565 9.45915 10.3215 9.61497 10.1523C9.78658 9.97941 9.92152 9.77355 10.0117 9.54712C10.1019 9.32069 10.1455 9.07836 10.1398 8.83466C10.1486 8.59813 10.1063 8.36249 10.0157 8.14386C9.92515 7.92523 9.78844 7.72878 9.61497 7.56797C9.2856 7.2532 8.84651 7.07958 8.39119 7.08406H3.7638C3.37051 7.08815 2.98097 7.00724 2.62176 6.84686C2.28098 6.69576 1.97093 6.48306 1.70717 6.21944C1.4458 5.9575 1.23955 5.64576 1.10061 5.30264C0.956128 4.95379 0.882436 4.57964 0.883815 4.20199C0.882222 3.83514 0.954884 3.47176 1.09741 3.13379C1.23994 2.79582 1.44938 2.49026 1.7131 2.23554C1.97732 1.9812 2.28778 1.7799 2.62767 1.64252C2.99057 1.49642 3.37859 1.42308 3.76972 1.42666H11.174V2.45615H3.76972C3.28274 2.43934 2.808 2.61093 2.44406 2.9353Z" fill="#505050"/>
<path d="M12.8892 1.5864V0.569061H13.7467V1.5864H12.8892ZM12.8892 12.5743V2.40097H13.7467V12.5743H12.8892Z" fill="#505050"/>
<path d="M25.7517 5.65267C25.758 6.34215 25.6174 7.02521 25.3392 7.65742C25.0754 8.26097 24.6945 8.80746 24.2179 9.26591C23.7438 9.72117 23.1894 10.0867 22.5821 10.3445C21.89 10.6312 21.1429 10.7652 20.393 10.7371C19.6431 10.7089 18.9085 10.5193 18.2403 10.1815C17.5557 9.82097 16.9587 9.3173 16.4907 8.70552V12.5743H15.4619V5.65736C15.4556 4.98744 15.5843 4.323 15.8406 3.70286C16.0969 3.08271 16.4756 2.51931 16.9545 2.04559C17.4335 1.57187 18.0031 1.19732 18.6301 0.943836C19.2571 0.690354 19.9289 0.56302 20.6062 0.569281C21.2854 0.565256 21.9581 0.700167 22.5821 0.965543C23.1894 1.22373 23.7438 1.58968 24.2179 2.04529C24.6962 2.50589 25.0774 3.0558 25.3392 3.66316C25.6147 4.29087 25.7552 4.96839 25.7517 5.65267ZM24.7228 5.65267C24.7255 5.11008 24.6132 4.57294 24.3933 4.07584C23.9712 3.1018 23.1865 2.32565 22.2017 1.90813C21.698 1.69345 21.1553 1.58272 20.6068 1.58272C20.0583 1.58272 19.5156 1.69345 19.0119 1.90813C18.0271 2.32565 17.2424 3.1018 16.8203 4.07584C16.6032 4.57402 16.4913 5.11079 16.4913 5.65326C16.4913 6.19573 16.6032 6.73249 16.8203 7.23068C17.2433 8.2041 18.0278 8.97995 19.0119 9.39839C19.5157 9.61266 20.0584 9.72317 20.6068 9.72317C21.1552 9.72317 21.6979 9.61266 22.2017 9.39839C23.1858 8.97995 23.9703 8.2041 24.3933 7.23068C24.6132 6.73316 24.7255 6.19565 24.7228 5.65267Z" fill="#505050"/>
<path d="M32.6155 1.42677C33.294 1.42283 33.9659 1.55924 34.5892 1.82746C35.1961 2.08854 35.7502 2.45858 36.224 2.91929C36.7021 3.38504 37.083 3.94111 37.3447 4.55526C37.6205 5.19109 37.7609 5.87745 37.757 6.57058H36.7287C36.7313 6.02192 36.6191 5.47878 36.3993 4.97611C35.9774 3.99118 35.1932 3.20634 34.2089 2.78415C33.7055 2.56707 33.1631 2.4551 32.615 2.4551C32.0668 2.4551 31.5244 2.56707 31.021 2.78415C30.0343 3.20537 29.2477 3.99082 28.8246 4.97729C28.6049 5.47996 28.4927 6.0231 28.4953 6.57177V11.7168H27.467V6.57177C27.4607 5.89426 27.5894 5.22228 27.8456 4.59512C28.1018 3.96796 28.4804 3.39821 28.9592 2.91917C29.438 2.44013 30.0075 2.06141 30.6342 1.80516C31.261 1.54892 31.9326 1.42028 32.6096 1.42677H32.6155Z" fill="#505050"/>
<path d="M49.7622 7.72732C49.7683 8.38396 49.6282 9.03451 49.3509 9.63698C49.0863 10.2115 48.7054 10.7319 48.2296 11.1692C47.7548 11.6026 47.2001 11.9508 46.5927 12.1966C45.969 12.4493 45.2967 12.5778 44.6179 12.5741C43.9405 12.5802 43.2686 12.459 42.6414 12.2176C42.0143 11.9762 41.4445 11.6195 40.9655 11.1682C40.4864 10.7169 40.1076 10.1802 39.8512 9.58938C39.5948 8.99858 39.4661 8.36556 39.4724 7.72732V1.42654H40.5024V4.81926H43.2797V5.78861H40.5024V7.72732C40.4994 8.24446 40.6113 8.75648 40.8308 9.23048C41.2538 10.1577 42.0383 10.8968 43.0224 11.2954C43.5262 11.4995 44.0689 11.6048 44.6173 11.6048C45.1657 11.6048 45.7084 11.4995 46.2122 11.2954C47.197 10.8977 47.9817 10.1583 48.4038 9.23048C48.6237 8.75656 48.736 8.24454 48.7334 7.72732H49.7622Z" fill="#505050"/>
<path d="M56.6745 10.6924C57.1493 10.6964 57.621 10.6161 58.0672 10.4553C58.7066 10.2217 59.2812 9.84154 59.7438 9.34602C60.2065 8.8505 60.5442 8.25364 60.7293 7.60422H61.7675C61.647 8.18464 61.4219 8.73882 61.1029 9.2402C60.7919 9.73063 60.4061 10.1705 59.9593 10.5442C59.0391 11.3077 57.8751 11.7231 56.6745 11.7167C55.2961 11.7167 53.9742 11.1746 52.9995 10.2098C52.0248 9.24487 51.4773 7.93621 51.4773 6.57165C51.4773 5.2071 52.0248 3.89844 52.9995 2.93356C53.9742 1.96868 55.2961 1.42661 56.6745 1.42661C57.8751 1.42019 59.0391 1.83565 59.9593 2.59906C60.4058 2.97307 60.7916 3.4129 61.1029 3.90311C61.4217 4.4046 61.6468 4.95874 61.7675 5.53909H60.7293C60.545 4.88995 60.2076 4.29345 59.7447 3.79877C59.2819 3.3041 58.7069 2.9254 58.0672 2.6939C57.0901 2.34845 56.0173 2.38149 55.0638 2.78637C54.0683 3.20764 53.2752 3.99278 52.8496 4.97835C52.6304 5.48211 52.5173 6.02489 52.5173 6.57343C52.5173 7.12198 52.6304 7.66475 52.8496 8.16852C53.2761 9.15346 54.0689 9.93829 55.0638 10.3605C55.5714 10.5814 56.1201 10.6944 56.6745 10.6924Z" fill="#505050"/>
</svg>
