<svg width="107" height="101" viewBox="0 0 107 101" fill="none" xmlns="http://www.w3.org/2000/svg">
<rect x="0.00012207" width="106.764" height="101" rx="8" fill="#4F46E5"/>
<path fill-rule="evenodd" clip-rule="evenodd" d="M53.235 53.4509C51.0364 53.4509 49.2542 51.6686 49.2542 49.4701C49.2542 47.2715 51.0364 45.4893 53.235 45.4893C55.4335 45.4893 57.2158 47.2715 57.2158 49.4701C57.2158 51.6686 55.4335 53.4509 53.235 53.4509Z" stroke="#FFA836" stroke-width="1.5" stroke-linecap="round" stroke-linejoin="round"/>
<path d="M60.5876 62.6166C60.5876 59.3157 57.3009 56.624 53.2351 56.624C49.1692 56.624 45.8826 59.3016 45.8826 62.6166" stroke="#FFA836" stroke-width="1.5" stroke-linecap="round" stroke-linejoin="round"/>
<path d="M53.2917 65.1667C45.8542 65.1667 39.8334 59.1458 39.8334 51.7083C39.8334 44.2708 45.8542 38.25 53.2917 38.25C55.1475 38.25 56.9184 38.6183 58.5334 39.2983C58.3492 39.865 58.25 40.46 58.25 41.0833C58.25 42.1458 58.5475 43.1517 59.0717 44.0017C59.355 44.4833 59.7234 44.9225 60.1484 45.2908C61.14 46.1975 62.4575 46.75 63.9167 46.75C64.54 46.75 65.135 46.6508 65.6875 46.4525C66.3675 48.0675 66.75 49.8525 66.75 51.7083C66.75 59.1458 60.7292 65.1667 53.2917 65.1667Z" stroke="white" stroke-width="1.5" stroke-linecap="round" stroke-linejoin="round"/>
<path d="M69.4133 42.4011C69.2858 42.9678 69.0592 43.5203 68.7617 44.002C68.0817 45.1495 66.9908 46.042 65.6875 46.4528C65.135 46.6511 64.54 46.7503 63.9167 46.7503C62.4575 46.7503 61.14 46.1978 60.1483 45.2911C59.7233 44.9228 59.355 44.4837 59.0717 44.002C58.5475 43.152 58.25 42.1462 58.25 41.0837C58.25 40.4603 58.3492 39.8653 58.5333 39.2986C58.8025 38.477 59.2558 37.7404 59.8508 37.1312C60.885 36.0687 62.33 35.417 63.9167 35.417C65.5883 35.417 67.1042 36.1395 68.1242 37.3012C69.0308 38.307 69.5833 39.6387 69.5833 41.0837C69.5833 41.537 69.5267 41.9761 69.4133 42.4011Z" stroke="white" stroke-width="1.5" stroke-linecap="round" stroke-linejoin="round"/>
<path d="M66.0276 41.0547H61.8059" stroke="#FFA836" stroke-width="1.5" stroke-linecap="round" stroke-linejoin="round"/>
<path d="M63.9166 38.9863V43.2221" stroke="#FFA836" stroke-width="1.5" stroke-linecap="round" stroke-linejoin="round"/>
</svg>
