<svg width="84" height="72" viewBox="0 0 84 72" fill="none" xmlns="http://www.w3.org/2000/svg">
<ellipse cx="42.3612" cy="36" rx="41.4823" ry="36" fill="white"/>
<path d="M42.4232 26V33L44.7312 31" stroke="#FFA836" stroke-width="1.5" stroke-linecap="round" stroke-linejoin="round"/>
<path d="M42.4232 33L40.1152 31" stroke="#FFA836" stroke-width="1.5" stroke-linecap="round" stroke-linejoin="round"/>
<path d="M30.86 37H35.9492C36.3877 37 36.7801 37.21 36.9762 37.55L38.3264 39.89C38.7188 40.57 39.5151 41 40.3921 41H44.4657C45.3428 41 46.139 40.57 46.5314 39.89L47.8816 37.55C48.0778 37.21 48.4817 37 48.9087 37H53.9401" stroke="#FFA836" stroke-width="1.5" stroke-linecap="round" stroke-linejoin="round"/>
<path d="M36.6531 28.1299C32.568 28.6499 30.8831 30.7299 30.8831 34.9999V38.9999C30.8831 43.9999 33.1911 45.9999 38.9611 45.9999H45.8852C51.6552 45.9999 53.9632 43.9999 53.9632 38.9999V34.9999C53.9632 30.7299 52.2784 28.6499 48.1932 28.1299" stroke="#344BA0" stroke-width="1.5" stroke-linecap="round" stroke-linejoin="round"/>
</svg>
