<svg width="92" height="14" viewBox="0 0 92 14" fill="none" xmlns="http://www.w3.org/2000/svg">
<path d="M2.40561 3.20215C2.13947 3.3684 1.92913 3.57299 1.78942 3.80153C1.6497 4.03007 1.58399 4.27702 1.59689 4.52503C1.59208 4.78013 1.66113 5.03332 1.79999 5.26964C1.93884 5.50597 2.14468 5.72064 2.40535 5.90098C2.66602 6.08133 2.97623 6.22369 3.31768 6.31966C3.65913 6.41564 4.02491 6.46329 4.3934 6.45979H11.382C11.9424 6.45723 12.4977 6.53394 13.0137 6.68523C14.02 6.98211 14.8214 7.53692 15.2502 8.23353C15.4687 8.5908 15.5796 8.97521 15.5759 9.36318C15.5773 10.1488 15.1371 10.904 14.3485 11.4689C13.9647 11.7419 13.5124 11.9643 13.0137 12.1254C12.5031 12.2907 11.9457 12.3754 11.382 12.3731H0.049233V11.2979H11.3874C11.7345 11.2986 12.0781 11.2493 12.3963 11.1531C12.7144 11.0569 13.0003 10.916 13.2356 10.7393C13.4948 10.5587 13.6986 10.3437 13.8348 10.1072C13.971 9.87077 14.0368 9.61769 14.0282 9.36318C14.0416 9.11617 13.9776 8.87007 13.8408 8.64174C13.704 8.41342 13.4976 8.20825 13.2356 8.0403C12.7382 7.71157 12.075 7.53025 11.3874 7.53494H4.39878C3.8048 7.5392 3.21649 7.4547 2.67399 7.28721C2.15932 7.12941 1.69107 6.90728 1.29271 6.63196C0.897978 6.35841 0.586483 6.03283 0.376648 5.67449C0.158445 5.31017 0.047151 4.91943 0.049233 4.52503C0.0468284 4.1419 0.156566 3.76241 0.371821 3.40944C0.587076 3.05648 0.903386 2.73737 1.30167 2.47135C1.70072 2.20573 2.16959 1.9955 2.68292 1.85203C3.23099 1.69945 3.81701 1.62286 4.40771 1.6266H15.5902V2.70174H4.40771C3.67224 2.68419 2.95526 2.8634 2.40561 3.20215Z" fill="#505050"/>
<path d="M18.1804 1.79354V0.731079H19.4754V1.79354H18.1804ZM18.1804 13.2689V2.64425H19.4754V13.2689H18.1804Z" fill="#505050"/>
<path d="M37.6063 6.04018C37.6158 6.76024 37.4035 7.4736 36.9833 8.13385C36.5849 8.76417 36.0096 9.3349 35.2898 9.81369C34.5738 10.2891 33.7365 10.6709 32.8194 10.9401C31.7741 11.2396 30.6458 11.3795 29.5133 11.3501C28.3808 11.3207 27.2712 11.1227 26.2621 10.7699C25.2281 10.3934 24.3265 9.86736 23.6198 9.22844V13.2689H22.0659V6.04508C22.0564 5.34544 22.2508 4.65152 22.6379 4.00388C23.0249 3.35623 23.5969 2.76784 24.3202 2.2731C25.0436 1.77836 25.9038 1.3872 26.8508 1.12248C27.7977 0.857751 28.8123 0.72477 29.8352 0.731309C30.861 0.727105 31.877 0.868 32.8194 1.14515C33.7366 1.41479 34.5739 1.79697 35.2898 2.27279C36.0122 2.75382 36.5878 3.32812 36.9833 3.96242C37.3994 4.61797 37.6115 5.32554 37.6063 6.04018ZM36.0524 6.04018C36.0564 5.47351 35.8869 4.91256 35.5548 4.3934C34.9172 3.37616 33.7321 2.56559 32.2448 2.12954C31.4841 1.90534 30.6645 1.7897 29.8361 1.7897C29.0078 1.7897 28.1882 1.90534 27.4275 2.12954C25.9401 2.56559 24.755 3.37616 24.1175 4.3934C23.7897 4.91368 23.6206 5.47426 23.6206 6.04079C23.6206 6.60733 23.7897 7.1679 24.1175 7.68818C24.7564 8.70478 25.9411 9.51504 27.4275 9.95204C28.1883 10.1758 29.0079 10.2912 29.8361 10.2912C30.6644 10.2912 31.4839 10.1758 32.2448 9.95204C33.7312 9.51504 34.9158 8.70478 35.5548 7.68818C35.8869 7.16859 36.0564 6.60724 36.0524 6.04018Z" fill="#505050"/>
<path d="M47.9727 1.62671C48.9973 1.62259 50.0121 1.76506 50.9534 2.04517C51.87 2.31783 52.7069 2.70429 53.4224 3.18544C54.1444 3.67184 54.7197 4.25257 55.115 4.89397C55.5315 5.558 55.7435 6.2748 55.7376 6.99868H54.1846C54.1886 6.42568 54.0191 5.85845 53.6872 5.33348C53.05 4.30486 51.8656 3.48522 50.3791 3.04429C49.6188 2.81759 48.7997 2.70066 47.9718 2.70066C47.1439 2.70066 46.3248 2.81759 45.5645 3.04429C44.0743 3.4842 42.8863 4.30449 42.2474 5.33472C41.9155 5.85968 41.7461 6.42692 41.75 6.99992V12.3731H40.1971V6.99992C40.1875 6.29236 40.3819 5.59057 40.7688 4.93559C41.1558 4.28062 41.7275 3.68559 42.4507 3.1853C43.1738 2.68501 44.0338 2.2895 44.9804 2.02189C45.927 1.75427 46.9412 1.61993 47.9637 1.62671H47.9727Z" fill="#505050"/>
<path d="M73.8686 8.20672C73.8778 8.8925 73.6662 9.5719 73.2474 10.2011C72.8477 10.8011 72.2725 11.3446 71.5539 11.8013C70.8369 12.2539 69.9991 12.6175 69.0817 12.8743C68.1399 13.1381 67.1245 13.2723 66.0993 13.2685C65.0762 13.2748 64.0614 13.1483 63.1143 12.8962C62.1672 12.6441 61.3067 12.2715 60.5831 11.8002C59.8596 11.3289 59.2875 10.7684 58.9003 10.1514C58.5131 9.53437 58.3187 8.87327 58.3282 8.20672V1.62646H59.8839V5.16968H64.0782V6.18203H59.8839V8.20672C59.8793 8.74681 60.0482 9.28154 60.3797 9.77656C61.0187 10.7449 62.2034 11.5168 63.6897 11.933C64.4506 12.1462 65.2702 12.2561 66.0984 12.2561C66.9266 12.2561 67.7462 12.1462 68.5071 11.933C69.9944 11.5177 71.1795 10.7456 71.8171 9.77656C72.1492 9.28162 72.3187 8.74689 72.3147 8.20672H73.8686Z" fill="#505050"/>
<path d="M84.3082 11.3034C85.0253 11.3075 85.7377 11.2236 86.4115 11.0557C87.3773 10.8117 88.245 10.4147 88.9437 9.89722C89.6425 9.37972 90.1525 8.75639 90.432 8.07816H92C91.8181 8.68433 91.478 9.26309 90.9963 9.78671C90.5265 10.2989 89.9439 10.7583 89.2691 11.1486C87.8793 11.9459 86.1214 12.3798 84.3082 12.3731C82.2265 12.3731 80.23 11.8069 78.758 10.7993C77.286 9.79159 76.459 8.42488 76.459 6.9998C76.459 5.57472 77.286 4.20802 78.758 3.20033C80.23 2.19265 82.2265 1.62654 84.3082 1.62654C86.1214 1.61984 87.8793 2.05372 89.2691 2.851C89.9435 3.24159 90.526 3.70094 90.9963 4.21288C91.4777 4.73662 91.8177 5.31534 92 5.92143H90.432C90.1538 5.2435 89.6441 4.62055 88.9451 4.10393C88.2461 3.5873 87.3777 3.19181 86.4115 2.95005C84.9359 2.58928 83.3157 2.62377 81.8757 3.04662C80.3721 3.48658 79.1743 4.30654 78.5317 5.33582C78.2005 5.86193 78.0297 6.42878 78.0297 7.00166C78.0297 7.57453 78.2005 8.14138 78.5317 8.66749C79.1758 9.69612 80.3731 10.5158 81.8757 10.9567C82.6422 11.1874 83.4709 11.3055 84.3082 11.3034Z" fill="#505050"/>
</svg>
