<svg width="84" height="72" viewBox="0 0 84 72" fill="none" xmlns="http://www.w3.org/2000/svg">
<ellipse cx="41.9782" cy="36" rx="41.4823" ry="36" fill="white"/>
<path d="M36.27 45C31.654 45 30.5 44 30.5 40V32C30.5 28 31.654 27 36.27 27H47.8101C52.4261 27 53.5801 28 53.5801 32V40C53.5801 44 52.4261 45 47.8101 45H36.27Z" stroke="#FFA836" stroke-width="1.5" stroke-linecap="round" stroke-linejoin="round"/>
<path d="M44.3481 32H50.1181" stroke="#344BA0" stroke-width="1.5" stroke-linecap="round" stroke-linejoin="round"/>
<path d="M45.5021 36H50.1182" stroke="#344BA0" stroke-width="1.5" stroke-linecap="round" stroke-linejoin="round"/>
<path d="M47.8101 40H50.1181" stroke="#344BA0" stroke-width="1.5" stroke-linecap="round" stroke-linejoin="round"/>
<path fill-rule="evenodd" clip-rule="evenodd" d="M38.001 35.2899C36.8474 35.2899 35.9122 34.4796 35.9122 33.4799C35.9122 32.4803 36.8474 31.6699 38.001 31.6699C39.1546 31.6699 40.0897 32.4803 40.0897 33.4799C40.0897 34.4796 39.1546 35.2899 38.001 35.2899Z" stroke="#344BA0" stroke-width="1.5" stroke-linecap="round" stroke-linejoin="round"/>
<path d="M42.0401 40.3298C41.8785 38.8798 40.5514 37.7398 38.8781 37.6098C38.3011 37.5598 37.7126 37.5598 37.124 37.6098C35.4507 37.7498 34.1236 38.8798 33.962 40.3298" stroke="#344BA0" stroke-width="1.5" stroke-linecap="round" stroke-linejoin="round"/>
</svg>
