<svg width="104" height="17" viewBox="0 0 104 17" fill="none" xmlns="http://www.w3.org/2000/svg">
<path d="M2.75495 3.70782C2.45556 3.92677 2.21896 4.1962 2.06179 4.49718C1.90463 4.79816 1.83071 5.1234 1.84522 5.45001C1.8398 5.78598 1.91748 6.11941 2.07368 6.43064C2.22988 6.74187 2.46143 7.02459 2.75466 7.2621C3.04789 7.49961 3.39684 7.68709 3.78095 7.81349C4.16505 7.93989 4.57652 8.00264 4.99103 7.99804H12.8525C13.483 7.99466 14.1076 8.09569 14.6881 8.29492C15.82 8.68592 16.7215 9.41657 17.2039 10.334C17.4498 10.8045 17.5744 11.3108 17.5703 11.8217C17.5718 12.8563 17.0767 13.8509 16.1896 14.5948C15.7579 14.9544 15.2491 15.2473 14.6881 15.4594C14.1137 15.6772 13.4867 15.7887 12.8525 15.7857H0.812212C0.421213 15.7857 0.104246 15.4687 0.104246 15.0777V15.0777C0.104246 14.6867 0.421213 14.3697 0.812212 14.3697H12.8586C13.2491 14.3706 13.6356 14.3056 13.9935 14.179C14.3514 14.0523 14.6729 13.8667 14.9377 13.634C15.2292 13.3962 15.4585 13.113 15.6117 12.8016C15.7649 12.4902 15.8389 12.1569 15.8293 11.8217C15.8443 11.4964 15.7724 11.1723 15.6185 10.8716C15.4646 10.5709 15.2324 10.3007 14.9377 10.0795C14.3781 9.64659 13.6321 9.40779 12.8586 9.41397H4.99708C4.32891 9.41958 3.66711 9.3083 3.05685 9.08772C2.4779 8.87989 1.95115 8.58736 1.50305 8.22478C1.05901 7.86451 0.708602 7.43574 0.472557 6.96382C0.227099 6.48402 0.101904 5.96942 0.104246 5.45001C0.101541 4.94544 0.224986 4.44566 0.467127 3.98082C0.709269 3.51598 1.06509 3.09571 1.51312 2.74538C1.96202 2.39556 2.48945 2.11869 3.0669 1.92975C3.68343 1.72881 4.34264 1.62794 5.00713 1.63286H16.8784C17.2694 1.63286 17.5864 1.94983 17.5864 2.34083V2.34083C17.5864 2.73183 17.2694 3.0488 16.8784 3.0488H5.00713C4.17979 3.02569 3.37326 3.26169 2.75495 3.70782Z" fill="#505050"/>
<path d="M21.1997 1.85266C20.8133 1.85266 20.5001 1.53943 20.5001 1.15304V1.15304C20.5001 0.766658 20.8133 0.45343 21.1997 0.45343H21.2573C21.6437 0.45343 21.9569 0.766658 21.9569 1.15304V1.15304C21.9569 1.53943 21.6437 1.85266 21.2573 1.85266H21.1997ZM21.2285 16.9653C20.8262 16.9653 20.5001 16.6392 20.5001 16.2369V3.70143C20.5001 3.29914 20.8262 2.97301 21.2285 2.97301V2.97301C21.6308 2.97301 21.9569 3.29914 21.9569 3.70143V16.2369C21.9569 16.6392 21.6308 16.9653 21.2285 16.9653V16.9653Z" fill="#505050"/>
<path d="M42.3524 7.44535C42.3631 8.39365 42.1243 9.33312 41.6516 10.2027C41.2035 11.0328 40.5562 11.7844 39.7466 12.4149C38.9411 13.0411 37.9993 13.5439 36.9676 13.8984C35.7917 14.2928 34.5225 14.4771 33.2485 14.4384C31.9745 14.3997 30.7264 14.1389 29.5912 13.6743V13.6743C28.3917 13.1628 26.6189 13.9649 26.6189 15.2689V16.0913C26.6189 16.574 26.2276 16.9653 25.7449 16.9653V16.9653C25.2623 16.9653 24.871 16.574 24.871 16.0913V7.4518C24.8602 6.53041 25.0789 5.61654 25.5143 4.7636C25.9497 3.91067 26.5931 3.13578 27.4068 2.48422C28.2205 1.83267 29.1882 1.31753 30.2535 0.96889C31.3187 0.620254 32.46 0.445121 33.6107 0.453733C34.7646 0.448196 35.9075 0.633751 36.9676 0.998744C37.9993 1.35385 38.9412 1.85717 39.7466 2.48382C40.5592 3.11731 41.2067 3.87366 41.6516 4.70901C42.1196 5.57235 42.3583 6.5042 42.3524 7.44535ZM40.6045 7.44535C40.6089 6.69907 40.4182 5.96031 40.0446 5.27659C39.3275 3.93692 37.9943 2.86942 36.3212 2.29516C35.4655 1.9999 34.5435 1.84761 33.6117 1.84761C32.6799 1.84761 31.7579 1.9999 30.9022 2.29516C29.2291 2.86942 27.8959 3.93692 27.1787 5.27659C26.81 5.96179 26.6198 6.70005 26.6198 7.44616C26.6198 8.19226 26.81 8.93052 27.1787 9.61572C27.8975 10.9545 29.2301 12.0216 30.9022 12.5971C31.7581 12.8919 32.68 13.0438 33.6117 13.0438C34.5434 13.0438 35.4653 12.8919 36.3212 12.5971C37.9932 12.0216 39.3259 10.9545 40.0446 9.61572C40.4182 8.93143 40.6089 8.19215 40.6045 7.44535Z" fill="#505050"/>
<path d="M54.0135 1.63301C55.1661 1.62759 56.3076 1.81521 57.3665 2.18412C58.3977 2.5432 59.339 3.05215 60.1439 3.68581C60.9561 4.32639 61.6033 5.09119 62.0479 5.93589C62.3741 6.54467 62.5888 7.18713 62.6869 7.84296C62.7579 8.31795 62.3607 8.70773 61.8805 8.70773V8.70773C61.3958 8.70773 61.012 8.30959 60.9188 7.83395C60.83 7.38073 60.67 6.93732 60.4418 6.51472C59.725 5.16006 58.3926 4.08061 56.7205 3.49993C55.8652 3.20136 54.9438 3.04737 54.0125 3.04737C53.0812 3.04737 52.1598 3.20136 51.3045 3.49993C49.6282 4.07928 48.2918 5.15956 47.5731 6.51635C47.1997 7.20771 47.0091 7.95474 47.0136 8.70937V14.9122C47.0136 15.3947 46.6225 15.7857 46.1401 15.7857V15.7857C45.6577 15.7857 45.2666 15.3947 45.2666 14.9122V8.70937C45.2559 7.77752 45.4745 6.85329 45.9098 5.99071C46.3451 5.12813 46.9883 4.3445 47.8017 3.68563C48.6152 3.02677 49.5826 2.50589 50.6475 2.15345C51.7123 1.80101 52.8532 1.62409 54.0034 1.63301H54.0135Z" fill="#505050"/>
<path d="M82.2779 10.2987C82.7579 10.2987 83.1564 10.6877 83.0783 11.1613C82.9783 11.7677 82.7657 12.3618 82.4454 12.9252C81.9958 13.7154 81.3488 14.4311 80.5404 15.0326C79.7338 15.6287 78.7914 16.1076 77.7594 16.4457C76.6999 16.7932 75.5577 16.9699 74.4045 16.9648C73.2536 16.9732 72.1121 16.8066 71.0466 16.4746C69.9812 16.1426 69.0132 15.6519 68.1993 15.0312C67.3854 14.4105 66.7418 13.6723 66.3063 12.8597C65.8707 12.0472 65.652 11.1765 65.6627 10.2987V2.50766C65.6627 2.02443 66.0545 1.63269 66.5377 1.63269V1.63269C67.0209 1.63269 67.4127 2.02443 67.4127 2.50766V3.96584C67.4127 5.25441 68.4573 6.299 69.7458 6.299H71.4643C71.8325 6.299 72.1309 6.59745 72.1309 6.96561V6.96561C72.1309 7.33377 71.8325 7.63223 71.4643 7.63223H69.7718C68.4689 7.63223 67.4127 8.68845 67.4127 9.99136V10.2987C67.4075 11.01 67.5975 11.7142 67.9705 12.3661C68.6892 13.6414 70.0219 14.6579 71.6939 15.2061C72.5498 15.4869 73.4718 15.6317 74.4034 15.6317C75.3351 15.6317 76.2571 15.4869 77.113 15.2061C78.7861 14.6591 80.1192 13.6423 80.8364 12.3661C81.0556 11.9836 81.2119 11.583 81.3027 11.1735C81.4079 10.699 81.7919 10.2987 82.2779 10.2987V10.2987Z" fill="#505050"/>
<path d="M94.8876 14.3769C95.6942 14.3823 96.4956 14.2719 97.2536 14.0508C98.34 13.7294 99.3161 13.2066 100.102 12.525C100.716 11.9928 101.2 11.3755 101.533 10.7051C101.699 10.3694 102.027 10.1294 102.402 10.1294V10.1294C102.979 10.1294 103.4 10.6768 103.15 11.197C102.953 11.6087 102.705 12.0048 102.411 12.3795C101.883 13.054 101.227 13.659 100.468 14.173C98.9047 15.223 96.9273 15.7944 94.8876 15.7856C92.5458 15.7856 90.3 15.0401 88.6441 13.713C86.9882 12.3859 86.058 10.586 86.058 8.70921C86.058 6.83242 86.9882 5.03251 88.6441 3.70543C90.3 2.37834 92.5458 1.63279 94.8876 1.63279C96.9273 1.62396 98.9047 2.19538 100.468 3.24536C101.227 3.75976 101.882 4.3647 102.411 5.03893C102.705 5.41379 102.953 5.81005 103.15 6.22187C103.399 6.74178 102.979 7.28903 102.402 7.28903V7.28903C102.027 7.28903 101.7 7.04866 101.533 6.71273C101.202 6.04307 100.717 5.42658 100.104 4.89543C99.3173 4.21506 98.3404 3.6942 97.2536 3.37581C95.5937 2.90068 93.7711 2.94611 92.1512 3.50299C90.4598 4.0824 89.1124 5.16226 88.3895 6.5178C88.017 7.21067 87.8248 7.95719 87.8248 8.71165C87.8248 9.46611 88.017 10.2126 88.3895 10.9055C89.114 12.2602 90.4609 13.3396 92.1512 13.9203C93.0135 14.2241 93.9457 14.3796 94.8876 14.3769Z" fill="#505050"/>
</svg>
