<svg width="234" height="37" viewBox="0 0 234 37" fill="none" xmlns="http://www.w3.org/2000/svg">
<path d="M6.61169 7.54526C5.93622 8.02482 5.4024 8.61497 5.04781 9.27422C4.69321 9.93348 4.52645 10.6458 4.55918 11.3612C4.54696 12.0971 4.72222 12.8275 5.07464 13.5092C5.42705 14.1909 5.94945 14.8101 6.61102 15.3303C7.2726 15.8506 8.0599 16.2612 8.9265 16.5381C9.7931 16.8149 10.7214 16.9524 11.6567 16.9423H29.3935C30.8158 16.9349 32.2251 17.1562 33.5348 17.5926C36.0887 18.449 38.1226 20.0494 39.211 22.0588C39.7656 23.0894 40.0469 24.1983 40.0375 25.3175C40.041 27.5836 38.9239 29.762 36.9224 31.3916C35.9484 32.1791 34.8005 32.8208 33.5348 33.2853C32.2389 33.7623 30.8242 34.0064 29.3935 33.9999H0.631263V30.8985H29.4071C30.2883 30.9003 31.1602 30.758 31.9677 30.4806C32.7752 30.2032 33.5006 29.7968 34.0979 29.2871C34.7557 28.7661 35.2729 28.1459 35.6186 27.4638C35.9643 26.7817 36.1313 26.0516 36.1096 25.3175C36.1434 24.6049 35.9812 23.895 35.634 23.2364C35.2868 22.5778 34.7628 21.9859 34.0979 21.5015C32.8354 20.5532 31.1524 20.0301 29.4071 20.0437H11.6703C10.1628 20.056 8.66968 19.8122 7.29283 19.3291C5.98662 18.8739 4.79819 18.2331 3.78719 17.4389C2.78536 16.6498 1.99479 15.7107 1.46223 14.677C0.908441 13.6261 0.625979 12.4989 0.631263 11.3612C0.62516 10.2561 0.903672 9.16137 1.44998 8.14321C1.99629 7.12505 2.79908 6.20452 3.80991 5.43718C4.8227 4.67095 6.01267 4.06452 7.3155 3.65067C8.70649 3.21054 10.1938 2.98959 11.693 3.00038H40.0738V6.10176H11.693C9.82636 6.05114 8.0067 6.56807 6.61169 7.54526Z" fill="white"/>
<path d="M46.6476 3.4819V0.417114H49.9345V3.4819H46.6476ZM46.6476 36.5838V5.93586H49.9345V36.5838H46.6476Z" fill="white"/>
<path d="M95.9501 15.7318C95.9742 17.8089 95.4355 19.8667 94.369 21.7713C93.3579 23.5895 91.8976 25.2358 90.071 26.6169C88.2537 27.9884 86.1287 29.0897 83.8011 29.8662C81.1481 30.7301 78.2846 31.1337 75.4102 31.0489C72.5359 30.9641 69.7199 30.393 67.1587 29.3753C64.5347 28.2891 62.2463 26.7718 60.4527 24.9287V36.5838H56.5091V15.746C56.4848 13.7278 56.9783 11.7261 57.9606 9.85787C58.943 7.98966 60.3945 6.29238 62.2303 4.86525C64.0662 3.43813 66.2496 2.30978 68.6529 1.54615C71.0561 0.782515 73.6312 0.398915 76.2273 0.417778C78.8308 0.40565 81.4093 0.812078 83.8011 1.61154C86.1289 2.38935 88.2539 3.49179 90.071 4.86436C91.9044 6.25193 93.3653 7.90859 94.369 9.7383C95.4249 11.6293 95.9634 13.6704 95.9501 15.7318ZM92.0065 15.7318C92.0165 14.0972 91.5863 12.4791 90.7434 10.9815C89.1253 8.04715 86.1175 5.70896 82.3427 4.45114C80.412 3.80442 78.3319 3.47084 76.2296 3.47084C74.1273 3.47084 72.0471 3.80442 70.1165 4.45114C66.3417 5.70896 63.3338 8.04715 61.7158 10.9815C60.8838 12.4823 60.4547 14.0994 60.4547 15.7336C60.4547 17.3678 60.8838 18.9849 61.7158 20.4857C63.3374 23.4182 66.3441 25.7555 70.1165 27.016C72.0475 27.6615 74.1276 27.9945 76.2296 27.9945C78.3317 27.9945 80.4116 27.6615 82.3427 27.016C86.1151 25.7555 89.1218 23.4182 90.7434 20.4857C91.5862 18.9869 92.0165 17.3676 92.0065 15.7318Z" fill="white"/>
<path d="M122.26 3.0007C124.86 2.98883 127.436 3.39979 129.825 4.20781C132.151 4.99433 134.275 6.10911 136.091 7.49703C137.924 8.90013 139.384 10.5753 140.387 12.4255C141.444 14.341 141.982 16.4087 141.967 18.4968H138.026C138.036 16.8439 137.606 15.2076 136.763 13.6933C135.146 10.7261 132.14 8.36178 128.367 7.08989C126.438 6.43593 124.359 6.09863 122.258 6.09863C120.156 6.09863 118.077 6.43593 116.148 7.08989C112.366 8.35887 109.351 10.7251 107.729 13.6969C106.887 15.2112 106.457 16.8475 106.467 18.5004V34H102.525V18.5004C102.501 16.4593 102.994 14.4349 103.977 12.5456C104.959 10.6562 106.41 8.93979 108.245 7.49665C110.08 6.05351 112.263 4.9126 114.665 4.14064C117.068 3.36868 119.642 2.98115 122.237 3.0007H122.26Z" fill="white"/>
<path d="M187.983 21.9815C188.006 23.9597 187.469 25.9195 186.406 27.7345C185.392 29.4652 183.932 31.033 182.108 32.3504C180.289 33.6561 178.162 34.705 175.834 35.4455C173.444 36.2067 170.867 36.5939 168.265 36.5827C165.668 36.6011 163.093 36.236 160.689 35.5088C158.285 34.7816 156.101 33.7068 154.265 32.3474C152.428 30.9879 150.976 29.3709 149.994 27.5911C149.011 25.8113 148.518 23.9043 148.542 21.9815V3H152.49V13.2208H163.135V16.141H152.49V21.9815C152.478 23.5394 152.907 25.0819 153.749 26.5099C155.37 29.3033 158.377 31.5297 162.149 32.7305C164.08 33.3454 166.16 33.6625 168.262 33.6625C170.364 33.6625 172.444 33.3454 174.376 32.7305C178.15 31.5324 181.158 29.3051 182.776 26.5099C183.619 25.0822 184.049 23.5397 184.039 21.9815H187.983Z" fill="white"/>
<path d="M214.478 30.9141C216.298 30.926 218.106 30.6841 219.817 30.1998C222.268 29.4959 224.47 28.3507 226.243 26.858C228.017 25.3652 229.311 23.5671 230.02 21.6107H234C233.538 23.3592 232.675 25.0287 231.453 26.5392C230.26 28.0166 228.782 29.3418 227.069 30.4677C223.542 32.7675 219.08 34.0191 214.478 33.9998C209.195 33.9998 204.128 32.3668 200.392 29.46C196.656 26.5532 194.557 22.6108 194.557 18.5C194.557 14.3892 196.656 10.4468 200.392 7.54001C204.128 4.63323 209.195 3.00022 214.478 3.00022C219.08 2.98088 223.542 4.23248 227.069 6.53231C228.781 7.65902 230.259 8.98405 231.453 10.4608C232.674 11.9716 233.537 13.641 234 15.3893H230.02C229.314 13.4338 228.021 11.6368 226.247 10.1465C224.473 8.65627 222.269 7.51543 219.817 6.81803C216.072 5.77734 211.959 5.87685 208.305 7.09659C204.489 8.3657 201.449 10.731 199.818 13.7001C198.977 15.2177 198.544 16.8528 198.544 18.5054C198.544 20.1579 198.977 21.793 199.818 23.3107C201.452 26.2779 204.491 28.6422 208.305 29.9141C210.25 30.5795 212.353 30.9202 214.478 30.9141Z" fill="white"/>
</svg>
