<svg width="39" height="26" viewBox="0 0 39 26" fill="none" xmlns="http://www.w3.org/2000/svg">
<path d="M6.06591 0.267184C5.9735 0.369509 5.87791 2.99585 5.87791 6.14747V11.7958H4.0838L3.99137 9.08421C3.93083 6.96267 3.80975 6.4101 3.44646 6.4101C3.08318 6.4101 2.95568 6.96267 2.89513 9.08421L2.80275 11.7958H1.92003C1.10105 11.7958 1.03731 11.7276 0.96402 10.2303C0.900286 9.38095 0.747325 8.69196 0.565684 8.69196C0.384043 8.69196 0.247018 10.2916 0.170538 12.6792C0.109991 16.1105 0.170535 16.6972 0.565684 16.6972C0.960833 16.6972 1.02136 16.3015 1.02136 14.8963C1.02136 13.1363 1.0214 13.1022 1.93598 13.1022H2.81866L2.91108 15.94C2.97163 18.2287 3.09272 18.8153 3.46237 18.8153C3.83203 18.8153 3.94678 18.2287 4.00732 15.94L4.09971 13.1022H5.89382L5.95757 19.0473C6.01812 22.7719 6.16789 25.0197 6.34953 25.0197C6.53117 25.0197 6.69051 22.7719 6.74787 19.0473L6.81158 13.1022H8.63755V16.4346C8.63755 19.7977 8.88293 20.9096 9.52027 20.4832C9.73059 20.3195 9.83894 18.945 9.83894 16.6597V13.1022H10.7567C11.6681 13.1022 11.6681 13.1363 11.6681 14.8963C11.6681 16.2606 11.7573 16.6972 12.1238 16.6972C12.4903 16.6972 12.5795 16.2709 12.5795 14.8963C12.5795 13.1363 12.5795 13.1022 13.4941 13.1022H14.3768L14.4692 15.94C14.5298 18.2287 14.6508 18.8153 15.0205 18.8153C15.3902 18.8153 15.5049 18.2287 15.5622 15.94L15.6578 13.1022H17.4233L17.5157 17.0212C17.5762 19.3713 17.726 20.9403 17.9077 20.9403C18.0893 20.9403 18.2486 19.3713 18.306 17.0212L18.3984 13.1022H20.5271L20.4697 18.3583C20.4697 21.2336 20.5271 23.6826 20.5908 23.7815C21.1995 24.433 21.413 23.0652 21.413 18.2969V13.1022H23.2422V15.3533C23.2422 17.3998 23.5608 18.389 24.0611 17.8705C24.1535 17.7716 24.2141 16.6597 24.1822 15.3909L24.1248 13.1022H25.1892C26.2536 13.1022 26.2886 13.1363 26.2886 14.4392C26.2886 16.1447 27.0184 16.0082 27.1363 14.3096C27.2319 13.2352 27.3243 13.1022 28.1146 13.1022H29.026L29.0897 18.389C29.179 22.864 29.2427 23.7133 29.6378 23.7133C30.033 23.7133 30.0967 22.864 30.1827 18.389L30.2465 13.1022H32.0725V16.0423C32.0725 18.4299 32.1649 18.9791 32.5282 18.9791C32.8915 18.9791 32.9839 18.4265 32.9839 16.0423V13.1022H34.8194V16.953C34.8194 19.078 34.9118 20.9403 35.0297 21.046C35.1476 21.1518 35.3962 21.1108 35.6384 20.9164C35.9124 20.6538 36.0367 19.5521 36.0367 16.8234V13.1022H36.9481C37.8022 13.1022 37.8659 13.167 37.8659 14.4085C37.8659 15.3533 37.987 15.7149 38.3216 15.7149C38.7199 15.7149 38.7773 15.2237 38.7199 12.7099C38.6562 10.6839 38.5032 9.67429 38.2578 9.57196C38.0125 9.46964 37.8659 9.83459 37.8659 10.6225C37.8659 11.6969 37.8022 11.7958 36.9481 11.7958H36.0654L35.9762 8.136C35.8837 4.93663 35.8232 4.44888 35.3675 4.34996C34.9118 4.25105 34.8194 4.57848 34.8194 8.00979V11.7958H32.987V9.02281C32.987 6.76824 32.901 6.24298 32.5313 6.24298C32.1617 6.24298 32.0757 6.76824 32.0757 9.02281V11.7958H30.2497V6.96267C30.2497 2.26253 30.0362 1.04827 29.367 1.47462C29.1535 1.64176 29.0292 3.40516 29.0292 6.76825V11.7958H28.1465C27.3562 11.7958 27.2351 11.6662 27.1395 10.7521C27.0216 9.24793 26.2918 9.14901 26.2918 10.6225C26.2918 11.7651 26.2568 11.7958 25.1924 11.7958H24.128L24.1854 9.90281C24.2173 8.85569 24.1567 7.81196 24.0357 7.61755C23.58 6.79894 23.2454 7.64824 23.2454 9.70498V11.7958H21.4162V6.76825C21.4162 2.1295 21.2027 0.792447 20.594 1.44392C20.5303 1.54283 20.4729 3.92361 20.4729 6.70344L20.5303 11.7958H18.3729V8.0439C18.3729 4.90934 18.2805 4.29197 17.9108 4.29197C17.5412 4.29197 17.4551 4.91275 17.4551 8.0439V11.7958H15.661L15.5654 9.08421C15.508 6.96267 15.3838 6.4101 15.0237 6.4101C14.6636 6.4101 14.5329 6.96267 14.4724 9.08421L14.38 11.7958H13.4973C12.6783 11.7958 12.6145 11.7276 12.5412 10.2303C12.4775 9.38095 12.3245 8.69196 12.1429 8.69196C11.9613 8.69196 11.8242 9.37413 11.7446 10.2303C11.6585 11.7276 11.5948 11.7958 10.7408 11.7958H9.85808V8.58964C9.85808 6.86034 9.70512 5.17879 9.53941 4.9298C8.96262 3.985 8.62802 5.29135 8.62802 8.58964V11.789H6.80202V6.10996C6.79564 0.925478 6.63951 -0.350179 6.06591 0.267184Z" fill="#0000FF"/>
</svg>
