<svg width="59" height="26" viewBox="0 0 59 26" fill="none" xmlns="http://www.w3.org/2000/svg">
<path d="M8.934 0.14959C8.79443 0.256454 8.65007 2.99929 8.65007 6.29071V12.1896H5.94049L5.8009 9.35771C5.70946 7.14206 5.52659 6.56499 4.97794 6.56499C4.42929 6.56499 4.23673 7.14206 4.14529 9.35771L4.00576 12.1896H2.67262C1.43574 12.1896 1.33949 12.1184 1.2288 10.5546C1.13254 9.66761 0.90153 8.94805 0.627203 8.94805C0.352877 8.94805 0.145934 10.6187 0.0304278 13.1122C-0.0610144 16.6957 0.030423 17.3084 0.627203 17.3084C1.22398 17.3084 1.31539 16.8952 1.31539 15.4276C1.31539 13.5895 1.31545 13.5539 2.69671 13.5539H4.02979L4.16938 16.5176C4.26082 18.9078 4.44369 19.5205 5.00197 19.5205C5.56025 19.5205 5.73355 18.9078 5.82499 16.5176L5.96452 13.5539H8.6741L8.77039 19.7627C8.86183 23.6526 9.08802 26 9.36234 26C9.63667 26 9.87731 23.6526 9.96394 19.7627L10.0602 13.5539H12.8179V17.0341C12.8179 20.5464 13.1885 21.7076 14.151 21.2624C14.4686 21.0914 14.6323 19.6558 14.6323 17.2692V13.5539H16.0183C17.3948 13.5539 17.3948 13.5895 17.3948 15.4276C17.3948 16.8524 17.5296 17.3084 18.083 17.3084C18.6365 17.3084 18.7712 16.8631 18.7712 15.4276C18.7712 13.5895 18.7712 13.5539 20.1525 13.5539H21.4856L21.6252 16.5176C21.7166 18.9078 21.8995 19.5205 22.4578 19.5205C23.0161 19.5205 23.1893 18.9078 23.2759 16.5176L23.4204 13.5539H26.0866L26.2262 17.6468C26.3176 20.1011 26.5438 21.7397 26.8182 21.7397C27.0925 21.7397 27.3331 20.1011 27.4198 17.6468L27.5593 13.5539H30.7742L30.6876 19.0432C30.6876 22.046 30.7742 24.6036 30.8705 24.7069C31.7897 25.3873 32.1122 23.9589 32.1122 18.979V13.5539H34.8747V15.9049C34.8747 18.0422 35.356 19.0752 36.1116 18.5338C36.2511 18.4305 36.3426 17.2692 36.2944 15.9441L36.2078 13.5539H37.8153C39.4227 13.5539 39.4757 13.5895 39.4757 14.9503C39.4757 16.7313 40.5778 16.5888 40.7559 14.8149C40.9002 13.6928 41.0398 13.5539 42.2333 13.5539H43.6098L43.7061 19.0752C43.8408 23.7487 43.9371 24.6357 44.5339 24.6357C45.1306 24.6357 45.2269 23.7487 45.3568 19.0752L45.4531 13.5539H48.2108V16.6245C48.2108 19.118 48.3504 19.6915 48.899 19.6915C49.4477 19.6915 49.5872 19.1144 49.5872 16.6245V13.5539H52.3594V17.5755C52.3594 19.7948 52.499 21.7397 52.677 21.8501C52.8551 21.9605 53.2305 21.9178 53.5962 21.7148C54.0101 21.4405 54.1978 20.2899 54.1978 17.4402V13.5539H55.5743C56.8641 13.5539 56.9604 13.6216 56.9604 14.9182C56.9604 15.9049 57.1432 16.2825 57.6486 16.2825C58.2502 16.2825 58.3368 15.7695 58.2502 13.1442C58.1539 11.0283 57.9229 9.97396 57.5524 9.86709C57.1818 9.76023 56.9604 10.1414 56.9604 10.9642C56.9604 12.0863 56.8641 12.1896 55.5743 12.1896H54.2412L54.1064 8.36744C53.9668 5.02615 53.8754 4.51677 53.1872 4.41347C52.4989 4.31016 52.3594 4.65212 52.3594 8.23563V12.1896H49.5921V9.29358C49.5921 6.93901 49.4621 6.39045 48.9038 6.39045C48.3455 6.39045 48.2156 6.93901 48.2156 9.29358V12.1896H45.4579V7.14206C45.4579 2.23344 45.1355 0.965322 44.1248 1.41059C43.8023 1.58513 43.6146 3.42675 43.6146 6.93902V12.1896H42.2815C41.088 12.1896 40.9051 12.0542 40.7607 11.0996C40.5826 9.52869 39.4805 9.42538 39.4805 10.9642C39.4805 12.1575 39.4276 12.1896 37.8201 12.1896H36.2126L36.2993 10.2126C36.3474 9.11904 36.256 8.02903 36.0731 7.82598C35.3849 6.97107 34.8795 7.85804 34.8795 10.006V12.1896H32.117V6.93902C32.117 2.09451 31.7945 0.698152 30.8753 1.37852C30.779 1.48182 30.6924 3.9682 30.6924 6.87134L30.7791 12.1896H27.5208V8.27125C27.5208 4.99765 27.3812 4.3529 26.8229 4.3529C26.2647 4.3529 26.1347 5.00121 26.1347 8.27125V12.1896H23.4252L23.2808 9.35771C23.1941 7.14206 23.0065 6.56499 22.4626 6.56499C21.9188 6.56499 21.7215 7.14206 21.63 9.35771L21.4904 12.1896H20.1573C18.9204 12.1896 18.8242 12.1184 18.7135 10.5546C18.6172 9.66761 18.3862 8.94805 18.1119 8.94805C17.8376 8.94805 17.6306 9.66049 17.5103 10.5546C17.3803 12.1184 17.2841 12.1896 15.9943 12.1896H14.6612V8.8412C14.6612 7.03519 14.4302 5.27906 14.1799 5.01902C13.3088 4.03231 12.8035 5.39661 12.8035 8.8412V12.1825H10.0457V6.25153C10.0361 0.837084 9.8003 -0.495156 8.934 0.14959Z" fill="#0000FF"/>
</svg>
