<svg width="148" height="75" viewBox="0 0 148 75" fill="none" xmlns="http://www.w3.org/2000/svg">
<path d="M22.6743 0.43151C22.3201 0.739772 21.9537 8.65181 21.9537 18.1463V35.1623H15.0768L14.7225 26.9934C14.4905 20.6021 14.0264 18.9375 12.6339 18.9375C11.2414 18.9375 10.7527 20.6021 10.5206 26.9934L10.1665 35.1623H6.78304C3.64388 35.1623 3.39959 34.9568 3.11865 30.4459C2.87436 27.8873 2.28806 25.8117 1.59183 25.8117C0.895593 25.8117 0.370376 30.6309 0.0772249 37.8236C-0.154853 48.1607 0.0772129 49.928 1.59183 49.928C3.10644 49.928 3.33843 48.7361 3.33843 44.5026C3.33843 39.2005 3.33858 39.0978 6.84417 39.0978H10.2275L10.5818 47.6469C10.8138 54.5417 11.278 56.3091 12.6949 56.3091C14.1118 56.3091 14.5516 54.5417 14.7837 47.6469L15.1378 39.0978H22.0146L22.259 57.0078C22.4911 68.2285 23.0652 75 23.7614 75C24.4576 75 25.0684 68.2285 25.2882 57.0078L25.5325 39.0978H32.5314V49.1368C32.5314 59.2684 33.472 62.6181 35.9149 61.3337C36.7211 60.8405 37.1364 56.6995 37.1364 49.815V39.0978H40.6542C44.1476 39.0978 44.1475 39.2005 44.1475 44.5026C44.1475 48.6128 44.4896 49.928 45.8943 49.928C47.299 49.928 47.6409 48.6436 47.6409 44.5026C47.6409 39.2005 47.6409 39.0978 51.1465 39.0978H54.53L54.8842 47.6469C55.1163 54.5417 55.5805 56.3091 56.9973 56.3091C58.4142 56.3091 58.8539 54.5417 59.0738 47.6469L59.4403 39.0978H66.2072L66.5613 50.9042C66.7934 57.9839 67.3676 62.7106 68.0639 62.7106C68.7601 62.7106 69.3708 57.9839 69.5907 50.9042L69.9448 39.0978H78.1043L77.8843 54.9322C77.8843 63.5943 78.1042 70.972 78.3485 71.27C80.6815 73.2326 81.5 69.1122 81.5 54.7472V39.0978H88.5111V45.8795C88.5111 52.0448 89.7325 55.0246 91.6502 53.4628C92.0045 53.1648 92.2365 49.815 92.1144 45.9926L91.8945 39.0978H95.9743C100.054 39.0978 100.188 39.2005 100.188 43.1257C100.188 48.2634 102.985 47.8524 103.437 42.7353C103.804 39.4985 104.158 39.0978 107.187 39.0978H110.681L110.925 55.0246C111.267 68.506 111.511 71.0645 113.026 71.0645C114.54 71.0645 114.785 68.506 115.114 55.0246L115.359 39.0978H122.358V47.9552C122.358 55.1479 122.712 56.8023 124.105 56.8023C125.497 56.8023 125.851 55.1377 125.851 47.9552V39.0978H132.887V50.6987C132.887 57.1002 133.241 62.7106 133.693 63.0291C134.145 63.3477 135.098 63.2244 136.026 62.6387C137.076 61.8475 137.553 58.5286 137.553 50.3082V39.0978H141.046C144.32 39.0978 144.564 39.293 144.564 43.0333C144.564 45.8795 145.028 46.9687 146.311 46.9687C147.838 46.9687 148.057 45.4891 147.838 37.9161C147.593 31.8125 147.007 28.771 146.066 28.4628C145.126 28.1545 144.564 29.254 144.564 31.6276C144.564 34.8643 144.32 35.1623 141.046 35.1623H137.663L137.321 24.1368C136.967 14.4985 136.734 13.0291 134.988 12.7311C133.241 12.4332 132.887 13.4196 132.887 23.7566V35.1623H125.863V26.8084C125.863 20.0164 125.534 18.434 124.117 18.434C122.7 18.434 122.37 20.0164 122.37 26.8084V35.1623H115.371V20.6021C115.371 6.44262 114.553 2.78458 111.988 4.06901C111.169 4.5725 110.693 9.88486 110.693 20.0164V35.1623H107.309C104.28 35.1623 103.816 34.7718 103.45 32.018C102.998 27.4866 100.2 27.1886 100.2 31.6276C100.2 35.0698 100.066 35.1623 95.9865 35.1623H91.9067L92.1266 29.4595C92.2488 26.3049 92.0167 23.1607 91.5526 22.575C89.8059 20.1089 88.5234 22.6674 88.5234 28.8635V35.1623H81.512V20.0164C81.512 6.04187 80.6937 2.0139 78.3607 3.9765C78.1164 4.27449 77.8966 11.4467 77.8966 19.8212L78.1165 35.1623H69.8472V23.8594C69.8472 14.4163 69.4928 12.5565 68.0759 12.5565C66.6591 12.5565 66.3293 14.4266 66.3293 23.8594V35.1623H59.4525L59.086 26.9934C58.8661 20.6021 58.3898 18.9375 57.0096 18.9375C55.6293 18.9375 55.1285 20.6021 54.8965 26.9934L54.5422 35.1623H51.1587C48.0196 35.1623 47.7753 34.9568 47.4943 30.4459C47.25 27.8873 46.6637 25.8117 45.9675 25.8117C45.2713 25.8117 44.746 27.8668 44.4407 30.4459C44.1109 34.9568 43.8666 35.1623 40.593 35.1623H37.2097V25.5034C37.2097 20.2938 36.6234 15.228 35.9883 14.4779C33.7774 11.6317 32.4949 15.5671 32.4949 25.5034V35.1418H25.4958V18.0333C25.4714 2.41466 24.8729 -1.42833 22.6743 0.43151Z" fill="white"/>
</svg>
