<svg width="67" height="35" viewBox="0 0 67 35" fill="none" xmlns="http://www.w3.org/2000/svg">
<path d="M10.8549 0.785873C10.6979 0.926609 10.5355 4.53884 10.5355 8.87353V15.0861C10.5355 15.9455 9.83885 16.6422 8.97945 16.6422V16.6422C8.14551 16.6422 7.45983 15.9848 7.42475 15.1516L7.33048 12.9127C7.22762 9.99474 7.02191 9.23475 6.40473 9.23475C5.78755 9.23475 5.57094 9.99474 5.46807 12.9127L5.37417 15.1439C5.33893 15.9814 4.6497 16.6422 3.81146 16.6422V16.6422C2.42009 16.6422 2.31181 16.5484 2.18729 14.4889C2.07901 13.3208 1.81915 12.3732 1.51055 12.3732C1.20196 12.3732 0.96917 14.5734 0.839236 17.8572C0.736372 22.5766 0.839231 23.3835 1.51055 23.3835C2.18188 23.3835 2.2847 22.8393 2.2847 20.9065C2.2847 18.4858 2.28477 18.4389 3.83855 18.4389V18.4389C4.67633 18.4389 5.36475 19.1002 5.39843 19.9373L5.49517 22.342C5.59803 25.4898 5.80375 26.2967 6.43176 26.2967C7.05977 26.2967 7.25472 25.4898 7.35758 22.342L7.45413 19.9412C7.48788 19.1019 8.17807 18.4389 9.01801 18.4389V18.4389C9.87433 18.4389 10.5717 19.1271 10.583 19.9834L10.6709 26.6157C10.7737 31.7385 11.0282 34.8301 11.3368 34.8301C11.6454 34.8301 11.9161 31.7385 12.0135 26.6157L12.1014 19.9796C12.1127 19.1254 12.8083 18.4389 13.6626 18.4389V18.4389C14.5249 18.4389 15.2239 19.138 15.2239 20.0003V23.0223C15.2239 27.6478 15.6408 29.1771 16.7236 28.5907C17.0809 28.3656 17.265 26.475 17.265 23.3319V19.9981C17.265 19.137 17.963 18.4389 18.8242 18.4389V18.4389C20.3725 18.4389 20.3725 18.4858 20.3725 20.9065C20.3725 22.783 20.5241 23.3835 21.1467 23.3835C21.7693 23.3835 21.9209 22.7971 21.9209 20.9065C21.9209 18.4858 21.9209 18.4389 23.4747 18.4389V18.4389C24.3125 18.4389 25.0009 19.1002 25.0346 19.9374L25.1314 22.342C25.2342 25.4898 25.4399 26.2967 26.068 26.2967C26.696 26.2967 26.8908 25.4898 26.9883 22.342L27.0888 19.9279C27.1234 19.0958 27.8081 18.4389 28.641 18.4389V18.4389C29.4814 18.4389 30.1695 19.1073 30.194 19.9473L30.307 23.8291C30.4099 27.0614 30.6644 29.2194 30.973 29.2194C31.2816 29.2194 31.5523 27.0614 31.6497 23.8291L31.7551 20.2079C31.7838 19.2227 32.5908 18.4389 33.5764 18.4389V18.4389C34.5923 18.4389 35.412 19.2697 35.3983 20.2855L35.3257 25.6681C35.3257 28.4414 35.3736 30.9262 35.4396 32.2103C35.4712 32.8252 35.9766 33.621 36.309 33.1028C36.7556 32.4066 36.9282 30.1082 36.9282 25.5837V19.9927C36.9282 19.1346 37.6239 18.4389 38.482 18.4389V18.4389C39.3402 18.4389 40.0358 19.1346 40.0358 19.9927V21.5351C40.0358 24.3499 40.5772 25.7103 41.4272 24.9973C41.5842 24.8612 41.687 23.3319 41.6329 21.5867L41.5914 20.2464C41.5607 19.2573 42.3542 18.4389 43.3437 18.4389V18.4389C45.1519 18.4389 45.2115 18.4858 45.2115 20.2779C45.2115 22.6235 46.4513 22.4358 46.6516 20.0996C46.814 18.6219 46.971 18.4389 48.3136 18.4389V18.4389C49.1724 18.4389 49.8722 19.1284 49.885 19.9871L49.9703 25.7103C50.1219 31.8652 50.2301 33.0333 50.9015 33.0333C51.5728 33.0333 51.681 31.8652 51.8272 25.7103L51.9126 19.9783C51.9253 19.1244 52.6211 18.4389 53.4751 18.4389V18.4389C54.3381 18.4389 55.0377 19.1385 55.0377 20.0016V22.4828C55.0377 25.7666 55.1947 26.5219 55.8119 26.5219C56.4291 26.5219 56.586 25.7619 56.586 22.4828V19.9981C56.586 19.137 57.2841 18.4389 58.1452 18.4389V18.4389C59.0064 18.4389 59.7045 19.137 59.7045 19.9981V23.7353C59.7045 26.6579 59.8615 29.2194 60.0618 29.3648C60.2621 29.5102 60.6843 29.4539 61.0958 29.1865C61.5614 28.8253 61.7725 27.31 61.7725 23.5571V19.9874C61.7725 19.1322 62.4658 18.4389 63.321 18.4389V18.4389C64.7719 18.4389 64.8802 18.5281 64.8802 20.2357C64.8802 21.5351 65.0859 22.0324 65.6543 22.0324C66.331 22.0324 66.4285 21.3569 66.331 17.8994C66.2228 15.1129 65.9629 13.7243 65.5461 13.5835C65.1292 13.4428 64.8802 13.9447 64.8802 15.0284C64.8802 16.5061 64.7719 16.6422 63.321 16.6422V16.6422C62.4855 16.6422 61.8013 15.9783 61.7762 15.1432L61.6697 11.6085C61.5127 7.20816 61.4098 6.53731 60.6356 6.40126C59.8614 6.26522 59.7045 6.71557 59.7045 11.4349V15.0857C59.7045 15.9453 59.0076 16.6422 58.148 16.6422V16.6422C57.2883 16.6422 56.5915 15.9453 56.5915 15.0857V12.8282C56.5915 9.72733 56.4453 9.00489 55.8172 9.00489C55.1892 9.00489 55.0431 9.72733 55.0431 12.8282V15.0911C55.0431 15.9478 54.3487 16.6422 53.492 16.6422V16.6422C52.6354 16.6422 51.941 15.9478 51.941 15.0911V9.99474C51.941 3.53024 51.5782 1.86017 50.4413 2.44657C50.0786 2.67644 49.8674 5.10179 49.8674 9.72734V15.1426C49.8674 15.9708 49.196 16.6422 48.3678 16.6422V16.6422C47.0252 16.6422 46.8194 16.4639 46.657 15.2067C46.4567 13.1379 45.2169 13.0018 45.2169 15.0284C45.2169 16.6 45.1574 16.6422 43.3491 16.6422V16.6422C42.3616 16.6422 41.5715 15.822 41.6085 14.8352L41.6383 14.0386C41.6924 12.5984 41.5896 11.1628 41.3839 10.8954C40.6097 9.76955 40.0412 10.9377 40.0412 13.7665V15.0884C40.0412 15.9465 39.3456 16.6422 38.4874 16.6422V16.6422C37.6293 16.6422 36.9336 15.9465 36.9336 15.0884V9.72734C36.9336 5.33637 36.7618 3.09636 36.3176 2.41853C35.9801 1.90361 35.4758 2.70648 35.4438 3.32128C35.3784 4.57626 35.3311 6.97397 35.3311 9.6382L35.4029 14.797C35.417 15.8119 34.5982 16.6422 33.5832 16.6422V16.6422C32.5782 16.6422 31.7634 15.8274 31.7634 14.8223V11.4818C31.7634 7.17062 31.6063 6.32151 30.9783 6.32151C30.3503 6.32151 30.2042 7.17531 30.2042 11.4818V15.085C30.2042 15.945 29.507 16.6422 28.647 16.6422V16.6422C27.8133 16.6422 27.1276 15.9856 27.0913 15.1528L26.9937 12.9127C26.8963 9.99474 26.6851 9.23475 26.0734 9.23475C25.4616 9.23475 25.2396 9.99474 25.1368 12.9127L25.0428 15.1439C25.0076 15.9814 24.3183 16.6422 23.4801 16.6422V16.6422C22.0887 16.6422 21.9804 16.5484 21.8559 14.4889C21.7477 13.3208 21.4878 12.3732 21.1792 12.3732C20.8706 12.3732 20.6378 13.3114 20.5025 14.4889C20.3563 16.5484 20.248 16.6422 18.7971 16.6422V16.6422C17.9689 16.6422 17.2975 15.9708 17.2975 15.1426V12.2324C17.2975 9.854 17.0376 7.54122 16.7561 7.19876C15.7762 5.8993 15.2077 7.69604 15.2077 12.2324V15.0817C15.2077 15.9384 14.5133 16.6328 13.6566 16.6328V16.6328C12.8 16.6328 12.1055 15.9384 12.1055 15.0817V8.82194C12.0947 1.69128 11.8294 -0.0632381 10.8549 0.785873Z" fill="#0000FF"/>
</svg>
