<svg width="40" height="40" viewBox="0 0 40 40" fill="none" xmlns="http://www.w3.org/2000/svg">
<path d="M32.3834 9.61641C33.65 10.2997 33.65 12.2497 32.3834 12.9331L21.5334 18.7831C20.5667 19.2997 19.4334 19.2997 18.4667 18.7831L7.61669 12.9331C6.35002 12.2497 6.35002 10.2997 7.61669 9.61641L18.4667 3.76641C19.4334 3.24974 20.5667 3.24974 21.5334 3.76641L32.3834 9.61641Z" stroke="white" stroke-width="1.5" stroke-linecap="round" stroke-linejoin="round"/>
<path d="M16.1 21.9335C17.35 22.5668 18.15 23.8501 18.15 25.2501V34.7835C18.15 36.1668 16.7 37.0501 15.4666 36.4335L5.38331 31.3835C4.13331 30.7501 3.33331 29.4668 3.33331 28.0668V18.5335C3.33331 17.1501 4.78331 16.2668 6.01665 16.8835L16.1 21.9335Z" stroke="#FFA836" stroke-width="1.5" stroke-linecap="round" stroke-linejoin="round"/>
<path d="M23.9 21.9335C22.65 22.5668 21.85 23.8501 21.85 25.2501V34.7835C21.85 36.1668 23.3 37.0501 24.5333 36.4335L34.6166 31.3835C35.8666 30.7501 36.6666 29.4668 36.6666 28.0668V18.5335C36.6666 17.1501 35.2166 16.2668 33.9833 16.8835L23.9 21.9335Z" stroke="#FFA836" stroke-width="1.5" stroke-linecap="round" stroke-linejoin="round"/>
</svg>
