<svg width="44" height="32" viewBox="0 0 44 32" fill="none" xmlns="http://www.w3.org/2000/svg">
<path d="M26.9417 29.3333C35.8954 29.3333 39.4769 26.6666 39.4769 20V12C39.4769 5.33329 35.8954 2.66663 26.9417 2.66663H16.1972C7.24353 2.66663 3.66205 5.33329 3.66205 12V20C3.66205 26.6666 7.24353 29.3333 16.1972 29.3333H26.9417Z" fill="#304594"/>
<path d="M16.3765 14.0267C16.3765 11.48 18.794 10.4533 21.7487 11.72L24.0408 12.7067L26.333 13.6933C29.2877 14.96 29.2877 17.04 26.333 18.3067L24.0408 19.2933L21.7487 20.28C18.794 21.5467 16.3765 20.5067 16.3765 17.9733V16V14.0267Z" stroke="white" stroke-width="1.5" stroke-linecap="round" stroke-linejoin="round"/>
</svg>
