<svg width="40" height="40" viewBox="0 0 40 40" fill="none" xmlns="http://www.w3.org/2000/svg">
<path d="M18.3666 32.5H12.5C11.4666 32.5 10.55 32.4667 9.73329 32.35C5.34996 31.8667 4.16663 29.8 4.16663 24.1667V15.8333C4.16663 10.2 5.34996 8.13333 9.73329 7.65C10.55 7.53333 11.4666 7.5 12.5 7.5H18.2666" stroke="white" stroke-width="1.5" stroke-linecap="round" stroke-linejoin="round"/>
<path d="M25.0333 7.5H27.5C28.5333 7.5 29.45 7.53333 30.2667 7.65C34.65 8.13333 35.8333 10.2 35.8333 15.8333V24.1667C35.8333 29.8 34.65 31.8667 30.2667 32.35C29.45 32.4667 28.5333 32.5 27.5 32.5H25.0333" stroke="white" stroke-width="1.5" stroke-linecap="round" stroke-linejoin="round"/>
<path d="M25 3.33301V36.6663" stroke="#FFA836" stroke-width="1.5" stroke-linecap="round" stroke-linejoin="round"/>
<path d="M18.4907 20.0003H18.5057" stroke="#FFA836" stroke-width="2" stroke-linecap="round" stroke-linejoin="round"/>
<path d="M11.8242 20.0003H11.8391" stroke="#FFA836" stroke-width="2" stroke-linecap="round" stroke-linejoin="round"/>
</svg>
